<svg version="1.1" id="Layer_1" xmlns="http://www.w3.org/2000/svg" xmlns:xlink="http://www.w3.org/1999/xlink" x="0px" y="0px"
	 width="100%" viewBox="0 0 1024 1024" enable-background="new 0 0 1024 1024" xml:space="preserve">
<path fill="#030304" opacity="1.000000" stroke="none" 
	d="
M945.000000,1025.000000 
	C630.365356,1025.000000 315.730743,1025.000000 1.048052,1025.000000 
	C1.048052,683.733459 1.048052,342.466919 1.048052,1.100176 
	C342.231781,1.100176 683.463623,1.100176 1025.000000,1.100176 
	C1025.000000,336.697540 1025.000000,672.395142 1024.533081,1008.546631 
	C1019.043762,1009.056213 1014.021423,1009.111938 1008.536743,1009.096802 
	C1003.050049,1009.073059 998.025574,1009.120056 992.538940,1009.098694 
	C987.045410,1009.073914 982.013977,1009.117554 976.520142,1009.088928 
	C971.038452,1009.066650 966.019165,1009.116699 960.537659,1009.091370 
	C955.068726,1009.015991 950.062073,1009.015991 945.000000,1009.015991 
	C945.000000,1014.828674 945.000000,1019.914307 945.000000,1025.000000 
M891.959229,336.531921 
	C892.084656,336.822235 892.210083,337.112549 892.335571,337.402863 
	C892.588013,337.053284 892.840515,336.703674 893.511475,335.783966 
	C905.460815,316.524261 908.732666,295.681305 902.866699,273.996338 
	C898.761536,258.820831 891.128662,245.454910 875.708923,238.498032 
	C867.477295,234.784180 859.542419,230.064835 850.959045,227.568924 
	C840.994080,224.671295 830.502747,223.448807 820.171692,221.978470 
	C806.236572,219.995209 792.263306,218.194275 778.256348,216.828140 
	C765.543457,215.588211 752.763489,215.035248 739.689697,213.597260 
	C736.390686,212.002228 733.074402,209.975708 729.079407,214.198624 
	C717.721130,214.026978 706.362915,213.855331 694.844971,213.033112 
	C691.557678,210.184448 688.660034,210.974319 685.097595,214.211411 
	C674.805176,214.699097 664.508301,215.110031 654.221619,215.697968 
	C645.479065,216.197662 636.748291,216.901489 627.955444,216.768021 
	C624.177002,213.381927 620.172729,214.279022 617.142883,219.214401 
	C611.124146,219.887100 605.105469,220.559799 598.717163,220.662354 
	C597.811646,221.124817 596.906128,221.587296 595.298767,222.472153 
	C592.346680,222.874512 589.335205,223.029480 586.452881,223.722260 
	C574.249207,226.655411 561.771667,228.948151 551.337341,236.648605 
	C546.438354,240.264038 541.535156,243.913147 537.008179,247.965195 
	C535.895752,248.960922 535.358398,252.113235 536.094910,253.379410 
	C538.392273,257.329010 541.426514,260.849945 543.903259,265.201111 
	C542.931091,266.979889 541.958984,268.758667 540.073914,270.751648 
	C529.052490,270.677063 518.031067,270.602478 506.902313,270.030243 
	C506.264465,270.195404 505.626617,270.360565 504.075623,270.739929 
	C491.865112,270.739929 479.654602,270.739929 466.823395,270.739929 
	C467.814453,267.617004 468.149170,265.214935 469.271210,263.266235 
	C473.503052,255.916534 467.882202,248.228683 462.679993,244.926086 
	C444.849548,233.606415 425.268158,226.888046 404.262573,224.772507 
	C376.527832,221.979233 348.756195,219.552750 320.893616,216.309479 
	C319.929016,216.533447 318.964386,216.757431 317.066528,217.113983 
	C300.044434,217.069504 283.022308,217.025024 265.844879,216.252289 
	C263.621857,214.333466 261.589996,213.921875 259.152527,217.212967 
	C243.108276,218.264130 227.064011,219.315277 210.979874,219.677948 
	C209.992432,218.841843 208.721130,217.106003 208.062973,217.313644 
	C203.301178,218.815933 198.663300,220.710968 193.350510,222.708801 
	C192.902115,222.687500 192.453705,222.666183 191.820007,221.989243 
	C187.220322,221.659668 182.614975,221.392944 178.022827,220.979706 
	C174.643250,220.675552 173.085541,222.210098 172.200546,225.833328 
	C169.046707,226.336685 165.892868,226.840042 161.980804,227.006287 
	C158.747589,225.177856 156.701324,225.970261 155.302017,230.118774 
	C142.575150,233.574051 131.288193,239.373657 122.193237,250.013290 
	C121.467590,251.356979 120.741943,252.700668 120.032310,254.505432 
	C119.963165,254.842270 119.763542,255.058777 118.672966,255.117477 
	C115.252434,255.865158 114.669128,257.818634 116.255692,261.404785 
	C114.735558,266.447754 112.496971,271.401001 111.853615,276.553467 
	C110.719254,285.638214 110.558167,294.844482 109.390846,304.084869 
	C109.090492,304.504150 108.790146,304.923431 108.489807,305.342712 
	C109.021690,305.561401 109.553574,305.780090 110.553253,306.668030 
	C111.894409,312.243134 112.555496,318.102509 114.738861,323.325531 
	C117.878998,330.837402 122.127007,337.886200 125.898483,345.990417 
	C125.241051,348.950775 124.583618,351.911163 123.133217,355.127045 
	C122.862991,356.766022 122.156075,358.471680 122.394394,360.033051 
	C123.795715,369.213928 125.594002,378.335541 126.929375,387.524963 
	C130.044952,408.964874 139.754623,427.279968 155.995453,441.015900 
	C167.126938,450.430634 180.248398,457.771545 193.197678,464.698425 
	C218.280609,478.115967 246.014847,482.661865 273.870209,484.958344 
	C291.489410,486.410919 309.497742,486.260010 327.063416,484.355438 
	C344.088257,482.509491 361.289734,479.005432 377.445007,473.425262 
	C391.351013,468.622070 403.980927,460.027924 417.015411,452.821228 
	C435.186035,442.774841 447.256134,426.838348 456.104492,408.781342 
	C472.811310,374.687317 470.083008,341.616791 448.346832,310.252441 
	C442.436676,301.724335 435.564606,293.886780 427.085815,288.208771 
	C416.116943,280.863312 404.462585,274.366730 392.557495,268.639374 
	C378.346802,261.802795 363.509827,256.472839 347.505585,255.076447 
	C342.283844,254.620865 337.178894,252.826981 331.903015,250.977905 
	C330.321808,248.874084 328.723206,247.580612 326.138916,250.877777 
	C313.617035,250.062653 301.078033,248.401321 288.577728,248.653793 
	C274.049347,248.947220 259.554871,250.918228 244.936417,251.395676 
	C242.566620,246.283264 238.714050,250.239487 235.770111,250.254532 
	C230.019699,250.283920 229.707367,250.446655 231.639145,244.555359 
	C256.778198,238.706055 282.257233,236.830948 308.107086,238.681305 
	C309.071899,238.463318 310.036682,238.245316 311.848206,237.842056 
	C321.525696,239.058014 331.184692,240.452774 340.884399,241.453674 
	C362.960022,243.731644 383.463348,251.444565 403.482788,260.250336 
	C412.953186,264.415985 421.828125,270.335541 430.173553,276.536224 
	C437.265900,281.805786 443.211060,288.619354 449.023468,295.025543 
	C449.965302,300.267456 453.900360,303.121521 458.289978,306.495697 
	C463.639008,315.446960 468.988068,324.398224 474.337097,333.349487 
	C474.805939,333.485962 475.274780,333.622406 475.743652,333.758881 
	C476.914581,329.962494 477.885834,326.088562 479.321075,322.394867 
	C480.421387,319.563171 481.524261,316.338409 483.631561,314.358856 
	C493.819946,304.787994 506.240082,304.235718 518.614685,308.091553 
	C527.558105,310.878296 533.895386,317.336395 535.255981,327.406250 
	C535.559204,329.649933 536.144836,331.855469 536.576233,333.960297 
	C543.950500,334.639801 544.366638,334.958832 544.207703,342.269897 
	C544.074890,348.379181 542.958496,354.521210 543.364014,360.576019 
	C544.059387,370.959564 544.995056,381.401306 546.928162,391.610687 
	C550.037659,408.033386 558.840454,421.772858 570.197937,433.634491 
	C575.579773,439.255249 582.258789,443.782135 588.821716,448.085358 
	C596.575989,453.169769 604.595154,457.983124 612.934021,462.015198 
	C630.040405,470.286560 648.307983,475.083862 666.969788,478.365997 
	C689.725647,482.368225 712.579102,484.544495 735.740112,482.697906 
	C759.691528,480.788269 782.993469,476.472076 805.420593,467.431152 
	C820.820374,461.223175 834.508728,452.209717 848.058655,443.002411 
	C857.339355,436.696075 863.606689,427.234283 869.791077,417.996490 
	C878.375427,405.173767 884.721436,391.207062 886.140564,375.809418 
	C887.136597,365.002075 885.978271,353.996185 886.440308,342.782440 
	C888.285950,340.525543 890.131592,338.268646 892.004822,336.009308 
	C892.004822,336.009308 891.983704,336.030151 891.959229,336.531921 
M408.894684,663.671875 
	C415.061798,666.933350 421.095306,670.484802 427.422150,673.399536 
	C443.656921,680.878784 459.551270,689.543213 476.468567,694.968323 
	C493.075317,700.293945 510.641205,703.332031 528.020996,705.404175 
	C570.473145,710.465576 612.274109,706.987488 652.568604,691.708374 
	C673.917358,683.613159 693.736084,672.550171 712.139038,659.010681 
	C730.093689,645.800781 745.392212,630.049438 757.643127,611.371338 
	C759.312439,608.826233 761.441528,606.582703 763.262878,604.317627 
	C746.566345,590.610535 730.424866,577.359070 713.950256,563.834106 
	C711.870728,566.908264 709.376099,570.203735 707.293701,573.741882 
	C697.997925,589.536621 685.864441,603.043945 671.815918,614.473206 
	C655.215332,627.978638 637.560791,640.058350 617.524841,648.385986 
	C600.263428,655.560486 582.645630,661.270020 564.295959,664.711975 
	C546.059875,668.132751 527.624512,668.198303 509.165680,667.747742 
	C474.502747,666.901611 442.134705,658.260437 413.669739,637.996887 
	C399.394745,627.834839 386.493866,615.976624 380.489990,598.575500 
	C378.999817,594.256531 377.313721,590.005249 375.563873,585.310181 
	C366.239868,593.098755 357.429901,600.457947 348.208435,608.160889 
	C354.659393,615.327881 360.098328,622.599487 366.750916,628.503479 
	C380.249298,640.483032 394.404266,651.722717 408.894684,663.671875 
z"/>
<path fill="#3C46FF" opacity="1.000000" stroke="none" 
	d="
M1008.999023,1009.167664 
	C1014.021423,1009.111938 1019.043762,1009.056213 1024.533081,1009.000244 
	C1025.000000,1014.258423 1025.000000,1019.516846 1025.000000,1025.000000 
	C1019.982300,1025.000000 1014.962341,1025.000000 1009.471191,1024.533569 
	C1008.999634,1019.100647 1008.999329,1014.134155 1008.999023,1009.167664 
z"/>
<path fill="#FF6E3C" opacity="1.000000" stroke="none" 
	d="
M1008.536743,1009.096802 
	C1008.999329,1014.134155 1008.999634,1019.100647 1009.000000,1024.533569 
	C1003.977905,1025.000000 998.955811,1025.000000 993.466858,1024.533569 
	C993.000366,1019.100464 993.000732,1014.133789 993.001099,1009.167114 
	C998.025574,1009.120056 1003.050049,1009.073059 1008.536743,1009.096802 
z"/>
<path fill="#51DA4C" opacity="1.000000" stroke="none" 
	d="
M992.538940,1009.098694 
	C993.000732,1014.133789 993.000366,1019.100464 993.000000,1024.533569 
	C987.977905,1025.000000 982.955811,1025.000000 977.466919,1024.533569 
	C976.994263,1019.098511 976.988464,1014.129883 976.982666,1009.161255 
	C982.013977,1009.117554 987.045410,1009.073914 992.538940,1009.098694 
z"/>
<path fill="#42FFFF" opacity="1.000000" stroke="none" 
	d="
M976.520142,1009.088928 
	C976.988464,1014.129883 976.994263,1019.098511 977.000000,1024.533569 
	C971.977905,1025.000000 966.955811,1025.000000 961.466858,1024.533691 
	C960.999939,1019.100525 960.999939,1014.133606 960.999939,1009.166748 
	C966.019165,1009.116699 971.038452,1009.066650 976.520142,1009.088928 
z"/>
<path fill="#FFFF66" opacity="1.000000" stroke="none" 
	d="
M960.537659,1009.091370 
	C960.999939,1014.133606 960.999939,1019.100525 961.000000,1024.533691 
	C955.977905,1025.000000 950.955811,1025.000000 945.466858,1025.000000 
	C945.000000,1019.914307 945.000000,1014.828674 945.000000,1009.015991 
	C950.062073,1009.015991 955.068726,1009.015991 960.537659,1009.091370 
z"/>
<path fill="#FDFDFD" opacity="1.000000" stroke="none" 
	d="
M245.045670,252.161133 
	C259.554871,250.918228 274.049347,248.947220 288.577728,248.653793 
	C301.078033,248.401321 313.617035,250.062653 326.893311,251.060455 
	C329.105316,251.377136 330.562897,251.511139 332.020508,251.645157 
	C337.178894,252.826981 342.283844,254.620865 347.505585,255.076447 
	C363.509827,256.472839 378.346802,261.802795 392.557495,268.639374 
	C404.462585,274.366730 416.116943,280.863312 427.085815,288.208771 
	C435.564606,293.886780 442.436676,301.724335 448.346832,310.252441 
	C470.083008,341.616791 472.811310,374.687317 456.104492,408.781342 
	C447.256134,426.838348 435.186035,442.774841 417.015411,452.821228 
	C403.980927,460.027924 391.351013,468.622070 377.445007,473.425262 
	C361.289734,479.005432 344.088257,482.509491 327.063416,484.355438 
	C309.497742,486.260010 291.489410,486.410919 273.870209,484.958344 
	C246.014847,482.661865 218.280609,478.115967 193.197678,464.698425 
	C180.248398,457.771545 167.126938,450.430634 155.995453,441.015900 
	C139.754623,427.279968 130.044952,408.964874 126.929375,387.524963 
	C125.594002,378.335541 123.795715,369.213928 122.394394,360.033051 
	C122.156075,358.471680 122.862991,356.766022 123.852966,355.135986 
	C125.546761,355.739532 126.520805,356.334167 127.406868,357.319427 
	C126.964523,358.095276 126.610168,358.480530 126.009781,358.745117 
	C125.865219,359.053070 125.966690,359.481659 126.415848,360.073303 
	C127.460350,361.855682 128.157150,363.475006 129.382172,366.321777 
	C130.023285,363.306732 130.376602,361.645142 130.811188,359.601379 
	C149.706299,359.601379 168.462936,359.601379 187.646301,359.601379 
	C187.646301,336.268890 187.646301,313.367218 187.646301,289.857910 
	C167.629105,289.857910 147.612457,289.857910 127.656624,289.857910 
	C127.656624,308.178925 127.656624,326.465027 127.359863,344.838928 
	C126.676117,344.995361 126.289131,345.063995 125.902138,345.132629 
	C122.127007,337.886200 117.878998,330.837402 114.738861,323.325531 
	C112.555496,318.102509 111.894409,312.243134 110.386566,305.998596 
	C110.143127,304.886078 110.066368,304.442963 109.989609,303.999878 
	C110.558167,294.844482 110.719254,285.638214 111.853615,276.553467 
	C112.496971,271.401001 114.735558,266.447754 116.562042,260.836212 
	C117.723412,258.563416 118.578423,256.859192 119.433434,255.154968 
	C119.763542,255.058777 119.963165,254.842270 120.304848,254.119843 
	C121.370598,252.484680 122.163803,251.235107 122.957008,249.985550 
	C131.288193,239.373657 142.575150,233.574051 156.007919,229.920547 
	C158.722214,228.929352 160.730621,228.136383 162.739029,227.343414 
	C165.892868,226.840042 169.046707,226.336685 172.982529,225.745956 
	C179.844772,224.654022 185.925049,223.649445 192.005310,222.644882 
	C192.453705,222.666183 192.902115,222.687500 194.064651,222.686371 
	C200.192444,221.898102 205.606110,221.132263 211.019760,220.366425 
	C227.064011,219.315277 243.108276,218.264130 259.994507,217.213913 
	C262.557739,217.136749 264.278961,217.058640 266.000214,216.980530 
	C283.022308,217.025024 300.044434,217.069504 317.900635,217.155609 
	C319.489929,217.121017 320.245178,217.044800 321.000397,216.968597 
	C348.756195,219.552750 376.527832,221.979233 404.262573,224.772507 
	C425.268158,226.888046 444.849548,233.606415 462.679993,244.926086 
	C467.882202,248.228683 473.503052,255.916534 469.271210,263.266235 
	C468.149170,265.214935 467.814453,267.617004 466.823395,270.739929 
	C479.654602,270.739929 491.865112,270.739929 504.863037,270.742218 
	C506.103516,270.672302 506.556580,270.600098 507.009613,270.527893 
	C518.031067,270.602478 529.052490,270.677063 540.951538,270.752075 
	C543.839478,270.752472 545.849792,270.752472 547.860046,270.752472 
	C548.112122,270.344299 548.364136,269.936127 548.616211,269.527954 
	C547.135803,267.864319 545.655457,266.200714 544.175049,264.537079 
	C541.426514,260.849945 538.392273,257.329010 536.094910,253.379410 
	C535.358398,252.113235 535.895752,248.960922 537.008179,247.965195 
	C541.535156,243.913147 546.438354,240.264038 551.337341,236.648605 
	C561.771667,228.948151 574.249207,226.655411 586.452881,223.722260 
	C589.335205,223.029480 592.346680,222.874512 595.979858,222.342194 
	C597.469543,221.885635 598.278137,221.559067 599.086731,221.232483 
	C605.105469,220.559799 611.124146,219.887100 617.979553,219.215454 
	C621.881592,218.649323 624.946899,218.082138 628.012268,217.514984 
	C636.748291,216.901489 645.479065,216.197662 654.221619,215.697968 
	C664.508301,215.110031 674.805176,214.699097 685.991638,214.200836 
	C689.591980,214.021408 692.298340,213.852554 695.004639,213.683685 
	C706.362915,213.855331 717.721130,214.026978 729.959229,214.201416 
	C733.897034,214.195953 736.955078,214.187698 740.013123,214.179428 
	C752.763489,215.035248 765.543457,215.588211 778.256348,216.828140 
	C792.263306,218.194275 806.236572,219.995209 820.171692,221.978470 
	C830.502747,223.448807 840.994080,224.671295 850.959045,227.568924 
	C859.542419,230.064835 867.477295,234.784180 875.708923,238.498032 
	C891.128662,245.454910 898.761536,258.820831 902.866699,273.996338 
	C908.732666,295.681305 905.460815,316.524261 893.002625,336.064392 
	C892.323792,336.239960 892.153748,336.135071 891.983704,336.030151 
	C891.983704,336.030151 892.004822,336.009308 891.982178,335.595215 
	C889.915710,328.527405 888.548950,321.566864 885.698853,315.278595 
	C877.754028,297.749634 865.343445,284.160034 849.894043,272.368347 
	C833.892395,260.155121 815.562927,253.818924 797.390747,246.799164 
	C790.047729,243.962646 781.940491,243.147110 774.235718,241.196289 
	C748.702087,234.731277 722.753113,233.001526 696.586426,234.801392 
	C662.302795,237.159576 629.369629,244.835175 598.841919,261.224731 
	C594.811829,263.388397 590.863525,265.704193 586.563416,268.072388 
	C582.520813,270.975708 578.541687,273.480438 575.114563,276.592896 
	C567.567200,283.447388 560.126343,290.200928 548.704163,287.845154 
	C548.468323,287.796478 548.152222,288.137360 547.640137,288.429810 
	C547.640137,311.517151 547.640137,334.730133 547.640137,358.036560 
	C567.798218,358.036560 587.560120,358.036560 607.776733,358.036560 
	C607.776733,334.437805 607.776733,311.061218 607.776733,286.911987 
	C596.804626,286.911987 585.842041,286.911987 574.879517,286.911987 
	C574.740906,286.420258 574.602356,285.928528 574.463806,285.436798 
	C580.709106,281.447174 586.954468,277.457550 593.553284,273.375427 
	C600.287598,270.100800 606.435974,266.268585 613.102234,263.884705 
	C623.864380,260.036072 635.005737,257.261627 645.917786,253.814819 
	C662.368652,248.618439 679.310120,246.520630 696.432312,245.849960 
	C723.110291,244.804977 749.578918,246.283661 775.428162,253.755630 
	C786.715942,257.018463 798.100098,259.977600 809.274475,263.588562 
	C814.123901,265.155640 818.436462,268.308899 823.194824,270.245453 
	C846.142029,279.584503 862.649780,296.281189 875.156311,316.941772 
	C879.965759,324.886902 882.312927,334.322510 885.782043,343.078979 
	C885.978271,353.996185 887.136597,365.002075 886.140564,375.809418 
	C884.721436,391.207062 878.375427,405.173767 869.791077,417.996490 
	C863.606689,427.234283 857.339355,436.696075 848.058655,443.002411 
	C834.508728,452.209717 820.820374,461.223175 805.420593,467.431152 
	C782.993469,476.472076 759.691528,480.788269 735.740112,482.697906 
	C712.579102,484.544495 689.725647,482.368225 666.969788,478.365997 
	C648.307983,475.083862 630.040405,470.286560 612.934021,462.015198 
	C604.595154,457.983124 596.575989,453.169769 588.821716,448.085358 
	C582.258789,443.782135 575.579773,439.255249 570.197937,433.634491 
	C558.840454,421.772858 550.037659,408.033386 546.928162,391.610687 
	C544.995056,381.401306 544.059387,370.959564 543.364014,360.576019 
	C542.958496,354.521210 544.074890,348.379181 544.207703,342.269897 
	C544.366638,334.958832 543.950500,334.639801 536.576233,333.960297 
	C536.144836,331.855469 535.559204,329.649933 535.255981,327.406250 
	C533.895386,317.336395 527.558105,310.878296 518.614685,308.091553 
	C506.240082,304.235718 493.819946,304.787994 483.631561,314.358856 
	C481.524261,316.338409 480.421387,319.563171 479.321075,322.394867 
	C477.885834,326.088562 476.914581,329.962494 475.743652,333.758881 
	C475.274780,333.622406 474.805939,333.485962 474.337097,333.349487 
	C468.988068,324.398224 463.639008,315.446960 458.012970,305.914032 
	C455.045227,301.804840 452.354523,298.277313 449.663818,294.749786 
	C443.211060,288.619354 437.265900,281.805786 430.173553,276.536224 
	C421.828125,270.335541 412.953186,264.415985 403.482788,260.250336 
	C383.463348,251.444565 362.960022,243.731644 340.884399,241.453674 
	C331.184692,240.452774 321.525696,239.058014 311.057495,237.824890 
	C309.510712,237.879623 308.754700,237.951508 307.998657,238.023407 
	C282.257233,236.830948 256.778198,238.706055 230.895599,244.689545 
	C220.558807,247.984161 210.930176,251.041611 201.379639,254.326248 
	C180.672226,261.447968 162.036575,272.302032 144.745819,285.946075 
	C144.235977,286.362457 143.978210,286.812714 143.720444,287.262939 
	C144.153366,287.201202 144.586288,287.139465 145.455200,287.207520 
	C148.985016,287.033936 152.447906,287.521576 155.104889,286.281891 
	C163.781311,282.233887 172.046844,277.311462 180.687042,273.178131 
	C193.533417,267.032684 206.264175,260.534485 220.412689,257.641205 
	C228.652649,255.956192 236.836548,253.996979 245.045670,252.161133 
z"/>
<path fill="#FCFCFC" opacity="1.000000" stroke="none" 
	d="
M408.591614,663.469604 
	C394.404266,651.722717 380.249298,640.483032 366.750916,628.503479 
	C360.098328,622.599487 354.659393,615.327881 348.208435,608.160889 
	C357.429901,600.457947 366.239868,593.098755 375.563873,585.310181 
	C377.313721,590.005249 378.999817,594.256531 380.489990,598.575500 
	C386.493866,615.976624 399.394745,627.834839 413.669739,637.996887 
	C442.134705,658.260437 474.502747,666.901611 509.165680,667.747742 
	C527.624512,668.198303 546.059875,668.132751 564.295959,664.711975 
	C582.645630,661.270020 600.263428,655.560486 617.524841,648.385986 
	C637.560791,640.058350 655.215332,627.978638 671.815918,614.473206 
	C685.864441,603.043945 697.997925,589.536621 707.293701,573.741882 
	C709.376099,570.203735 711.870728,566.908264 713.950256,563.834106 
	C730.424866,577.359070 746.566345,590.610535 763.262878,604.317627 
	C761.441528,606.582703 759.312439,608.826233 757.643127,611.371338 
	C745.392212,630.049438 730.093689,645.800781 712.139038,659.010681 
	C693.736084,672.550171 673.917358,683.613159 652.568604,691.708374 
	C612.274109,706.987488 570.473145,710.465576 528.020996,705.404175 
	C510.641205,703.332031 493.075317,700.293945 476.468567,694.968323 
	C459.551270,689.543213 443.656921,680.878784 427.422150,673.399536 
	C421.095306,670.484802 415.061798,666.933350 408.591614,663.469604 
z"/>
<path fill="#0F0E0E" opacity="1.000000" stroke="none" 
	d="
M586.877319,267.949524 
	C590.863525,265.704193 594.811829,263.388397 598.841919,261.224731 
	C629.369629,244.835175 662.302795,237.159576 696.586426,234.801392 
	C722.753113,233.001526 748.702087,234.731277 774.235718,241.196289 
	C781.940491,243.147110 790.047729,243.962646 797.390747,246.799164 
	C815.562927,253.818924 833.892395,260.155121 849.894043,272.368347 
	C865.343445,284.160034 877.754028,297.749634 885.698853,315.278595 
	C888.548950,321.566864 889.915710,328.527405 891.968384,335.596436 
	C890.131592,338.268646 888.285950,340.525543 886.111206,342.930725 
	C882.312927,334.322510 879.965759,324.886902 875.156311,316.941772 
	C862.649780,296.281189 846.142029,279.584503 823.194824,270.245453 
	C818.436462,268.308899 814.123901,265.155640 809.274475,263.588562 
	C798.100098,259.977600 786.715942,257.018463 775.428162,253.755630 
	C749.578918,246.283661 723.110291,244.804977 696.432312,245.849960 
	C679.310120,246.520630 662.368652,248.618439 645.917786,253.814819 
	C635.005737,257.261627 623.864380,260.036072 613.102234,263.884705 
	C606.435974,266.268585 600.287598,270.100800 593.406616,273.038574 
	C590.896790,271.179382 588.887024,269.564484 586.877319,267.949524 
z"/>
<path fill="#0F0E0E" opacity="1.000000" stroke="none" 
	d="
M244.991043,251.778412 
	C236.836548,253.996979 228.652649,255.956192 220.412689,257.641205 
	C206.264175,260.534485 193.533417,267.032684 180.687042,273.178131 
	C172.046844,277.311462 163.781311,282.233887 155.104889,286.281891 
	C152.447906,287.521576 148.985016,287.033936 145.456604,286.932953 
	C145.013962,286.345703 145.005936,286.162842 144.997894,285.979950 
	C162.036575,272.302032 180.672226,261.447968 201.379639,254.326248 
	C210.930176,251.041611 220.558807,247.984161 230.557846,244.863800 
	C229.707367,250.446655 230.019699,250.283920 235.770111,250.254532 
	C238.714050,250.239487 242.566620,246.283264 244.991043,251.778412 
z"/>
<path fill="#060607" opacity="1.000000" stroke="none" 
	d="
M191.912659,222.317062 
	C185.925049,223.649445 179.844772,224.654022 173.374451,225.567963 
	C173.085541,222.210098 174.643250,220.675552 178.022827,220.979706 
	C182.614975,221.392944 187.220322,221.659668 191.912659,222.317062 
z"/>
<path fill="#060607" opacity="1.000000" stroke="none" 
	d="
M210.999817,220.022186 
	C205.606110,221.132263 200.192444,221.898102 194.382477,222.572784 
	C198.663300,220.710968 203.301178,218.815933 208.062973,217.313644 
	C208.721130,217.106003 209.992432,218.841843 210.999817,220.022186 
z"/>
<path fill="#060607" opacity="1.000000" stroke="none" 
	d="
M544.039185,264.869080 
	C545.655457,266.200714 547.135803,267.864319 548.616211,269.527954 
	C548.364136,269.936127 548.112122,270.344299 547.860046,270.752472 
	C545.849792,270.752472 543.839478,270.752472 541.408081,270.644958 
	C541.958984,268.758667 542.931091,266.979889 544.039185,264.869080 
z"/>
<path fill="#0F0E0E" opacity="1.000000" stroke="none" 
	d="
M449.343628,294.887665 
	C452.354523,298.277313 455.045227,301.804840 457.762299,305.672607 
	C453.900360,303.121521 449.965302,300.267456 449.343628,294.887665 
z"/>
<path fill="#060607" opacity="1.000000" stroke="none" 
	d="
M627.983887,217.141495 
	C624.946899,218.082138 621.881592,218.649323 618.408081,219.107422 
	C620.172729,214.279022 624.177002,213.381927 627.983887,217.141495 
z"/>
<path fill="#6B6A6B" opacity="1.000000" stroke="none" 
	d="
M127.494858,356.928833 
	C126.520805,356.334167 125.546761,355.739532 124.249451,355.008209 
	C124.583618,351.911163 125.241051,348.950775 125.900314,345.561523 
	C126.289131,345.063995 126.676117,344.995361 127.519424,345.285156 
	C127.815445,349.405365 127.655151,353.167084 127.494858,356.928833 
z"/>
<path fill="#060607" opacity="1.000000" stroke="none" 
	d="
M739.851440,213.888336 
	C736.955078,214.187698 733.897034,214.195953 730.419434,214.094818 
	C733.074402,209.975708 736.390686,212.002228 739.851440,213.888336 
z"/>
<path fill="#060607" opacity="1.000000" stroke="none" 
	d="
M694.924805,213.358398 
	C692.298340,213.852554 689.591980,214.021408 686.442749,214.085312 
	C688.660034,210.974319 691.557678,210.184448 694.924805,213.358398 
z"/>
<path fill="#060607" opacity="1.000000" stroke="none" 
	d="
M162.359924,227.174835 
	C160.730621,228.136383 158.722214,228.929352 156.353653,229.720123 
	C156.701324,225.970261 158.747589,225.177856 162.359924,227.174835 
z"/>
<path fill="#0F0E0E" opacity="1.000000" stroke="none" 
	d="
M331.961761,251.311523 
	C330.562897,251.511139 329.105316,251.377136 327.336792,251.058060 
	C328.723206,247.580612 330.321808,248.874084 331.961761,251.311523 
z"/>
<path fill="#060607" opacity="1.000000" stroke="none" 
	d="
M119.053200,255.136230 
	C118.578423,256.859192 117.723412,258.563416 116.582062,260.489441 
	C114.669128,257.818634 115.252434,255.865158 119.053200,255.136230 
z"/>
<path fill="#060607" opacity="1.000000" stroke="none" 
	d="
M265.922546,216.616409 
	C264.278961,217.058640 262.557739,217.136749 260.418213,217.104233 
	C261.589996,213.921875 263.621857,214.333466 265.922546,216.616409 
z"/>
<path fill="#060607" opacity="1.000000" stroke="none" 
	d="
M122.575119,249.999420 
	C122.163803,251.235107 121.370598,252.484680 120.296844,253.889297 
	C120.741943,252.700668 121.467590,251.356979 122.575119,249.999420 
z"/>
<path fill="#060607" opacity="1.000000" stroke="none" 
	d="
M598.901978,220.947418 
	C598.278137,221.559067 597.469543,221.885635 596.330811,222.130981 
	C596.906128,221.587296 597.811646,221.124817 598.901978,220.947418 
z"/>
<path fill="#060607" opacity="1.000000" stroke="none" 
	d="
M320.947021,216.639038 
	C320.245178,217.044800 319.489929,217.121017 318.367249,217.089325 
	C318.964386,216.757431 319.929016,216.533447 320.947021,216.639038 
z"/>
<path fill="#0F0E0E" opacity="1.000000" stroke="none" 
	d="
M308.052856,238.352356 
	C308.754700,237.951508 309.510712,237.879623 310.634125,237.917526 
	C310.036682,238.245316 309.071899,238.463318 308.052856,238.352356 
z"/>
<path fill="#060607" opacity="1.000000" stroke="none" 
	d="
M506.955963,270.279053 
	C506.556580,270.600098 506.103516,270.672302 505.319641,270.635132 
	C505.626617,270.360565 506.264465,270.195404 506.955963,270.279053 
z"/>
<path fill="#060607" opacity="1.000000" stroke="none" 
	d="
M109.690231,304.042358 
	C110.066368,304.442963 110.143127,304.886078 110.152672,305.663971 
	C109.553574,305.780090 109.021690,305.561401 108.489799,305.342712 
	C108.790146,304.923431 109.090492,304.504150 109.690231,304.042358 
z"/>
<path fill="#0F0E0E" opacity="1.000000" stroke="none" 
	d="
M891.971436,336.281036 
	C892.153748,336.135071 892.323792,336.239960 892.793335,336.349457 
	C892.840515,336.703674 892.588013,337.053284 892.335571,337.402863 
	C892.210083,337.112549 892.084656,336.822235 891.971436,336.281036 
z"/>
<path fill="#050506" opacity="1.000000" stroke="none" 
	d="
M586.563416,268.072418 
	C588.887024,269.564484 590.896790,271.179382 593.053162,273.131104 
	C586.954468,277.457550 580.709106,281.447174 574.463806,285.436798 
	C574.602356,285.928528 574.740906,286.420258 574.879517,286.911987 
	C585.842041,286.911987 596.804626,286.911987 607.776733,286.911987 
	C607.776733,311.061218 607.776733,334.437805 607.776733,358.036560 
	C587.560120,358.036560 567.798218,358.036560 547.640137,358.036560 
	C547.640137,334.730133 547.640137,311.517151 547.640137,288.429810 
	C548.152222,288.137360 548.468323,287.796478 548.704163,287.845154 
	C560.126343,290.200928 567.567200,283.447388 575.114563,276.592896 
	C578.541687,273.480438 582.520813,270.975708 586.563416,268.072418 
z"/>
<path fill="#060607" opacity="1.000000" stroke="none" 
	d="
M127.406860,357.319427 
	C127.655151,353.167084 127.815445,349.405365 127.816177,345.197388 
	C127.656624,326.465027 127.656624,308.178925 127.656624,289.857910 
	C147.612457,289.857910 167.629105,289.857910 187.646301,289.857910 
	C187.646301,313.367218 187.646301,336.268890 187.646301,359.601379 
	C168.462936,359.601379 149.706299,359.601379 130.811188,359.601379 
	C130.376602,361.645142 130.023285,363.306732 129.382172,366.321777 
	C128.157150,363.475006 127.460350,361.855682 126.493073,359.905334 
	C126.378891,359.344940 126.389954,359.108765 126.255814,358.865784 
	C126.610168,358.480530 126.964523,358.095276 127.406860,357.319427 
z"/>
<path fill="#1E1D1D" opacity="1.000000" stroke="none" 
	d="
M144.745819,285.946075 
	C145.005936,286.162842 145.013962,286.345703 145.020615,286.803162 
	C144.586288,287.139465 144.153366,287.201202 143.720444,287.262939 
	C143.978210,286.812714 144.235977,286.362457 144.745819,285.946075 
z"/>
<path fill="#6B6A6B" opacity="1.000000" stroke="none" 
	d="
M126.009773,358.745117 
	C126.389954,359.108765 126.378891,359.344940 126.145393,359.742279 
	C125.966690,359.481659 125.865219,359.053070 126.009773,358.745117 
z"/>
</svg>